<mxfile host="app.diagrams.net" agent="Mozilla/5.0 (Windows NT 10.0; Win64; x64) AppleWebKit/537.36 (KHTML, like Gecko) Chrome/138.0.0.0 Safari/537.36" version="27.2.0">
  <diagram name="Page-1" id="THKtcld4XyU7Z25AiHE0">
    <mxGraphModel dx="1423" dy="1102" grid="1" gridSize="10" guides="1" tooltips="1" connect="1" arrows="1" fold="1" page="1" pageScale="1" pageWidth="1600" pageHeight="1600" math="0" shadow="0">
      <root>
        <mxCell id="0" />
        <mxCell id="1" parent="0" />
        <mxCell id="2gW1HQ8y5TxxJWkhXWdI-4" style="edgeStyle=orthogonalEdgeStyle;rounded=0;orthogonalLoop=1;jettySize=auto;html=1;entryX=0;entryY=0.5;entryDx=0;entryDy=0;endArrow=none;endFill=0;startArrow=ERone;startFill=0;" parent="1" source="2gW1HQ8y5TxxJWkhXWdI-1" target="2gW1HQ8y5TxxJWkhXWdI-5" edge="1">
          <mxGeometry relative="1" as="geometry">
            <mxPoint x="230" y="420" as="targetPoint" />
          </mxGeometry>
        </mxCell>
        <mxCell id="2gW1HQ8y5TxxJWkhXWdI-83" style="edgeStyle=orthogonalEdgeStyle;rounded=0;orthogonalLoop=1;jettySize=auto;html=1;entryX=0;entryY=0.5;entryDx=0;entryDy=0;endArrow=none;endFill=0;" parent="1" target="CF5qxJ0rqfzSJKUL-HBB-4" edge="1">
          <mxGeometry relative="1" as="geometry">
            <mxPoint x="130" y="280" as="sourcePoint" />
            <mxPoint x="400" y="200" as="targetPoint" />
            <Array as="points">
              <mxPoint x="130" y="120" />
            </Array>
          </mxGeometry>
        </mxCell>
        <mxCell id="2gW1HQ8y5TxxJWkhXWdI-1" value="User" style="whiteSpace=wrap;html=1;align=center;" parent="1" vertex="1">
          <mxGeometry x="80" y="400" width="100" height="40" as="geometry" />
        </mxCell>
        <mxCell id="2gW1HQ8y5TxxJWkhXWdI-9" style="edgeStyle=orthogonalEdgeStyle;rounded=0;orthogonalLoop=1;jettySize=auto;html=1;entryX=0.5;entryY=1;entryDx=0;entryDy=0;endArrow=ERone;endFill=0;startArrow=ERzeroToOne;startFill=0;" parent="1" source="2gW1HQ8y5TxxJWkhXWdI-3" target="2gW1HQ8y5TxxJWkhXWdI-7" edge="1">
          <mxGeometry relative="1" as="geometry" />
        </mxCell>
        <mxCell id="2gW1HQ8y5TxxJWkhXWdI-3" value="Habit" style="whiteSpace=wrap;html=1;align=center;" parent="1" vertex="1">
          <mxGeometry x="410" y="400" width="100" height="40" as="geometry" />
        </mxCell>
        <mxCell id="2gW1HQ8y5TxxJWkhXWdI-6" style="edgeStyle=orthogonalEdgeStyle;rounded=0;orthogonalLoop=1;jettySize=auto;html=1;entryX=0;entryY=0.5;entryDx=0;entryDy=0;endArrow=ERzeroToMany;endFill=0;" parent="1" source="2gW1HQ8y5TxxJWkhXWdI-5" target="2gW1HQ8y5TxxJWkhXWdI-3" edge="1">
          <mxGeometry relative="1" as="geometry" />
        </mxCell>
        <mxCell id="2gW1HQ8y5TxxJWkhXWdI-5" value="Creates" style="shape=rhombus;perimeter=rhombusPerimeter;whiteSpace=wrap;html=1;align=center;" parent="1" vertex="1">
          <mxGeometry x="260" y="400" width="80" height="40" as="geometry" />
        </mxCell>
        <mxCell id="2gW1HQ8y5TxxJWkhXWdI-7" value="Custom_Habit" style="shape=ext;margin=3;double=1;whiteSpace=wrap;html=1;align=center;" parent="1" vertex="1">
          <mxGeometry x="410" y="242" width="100" height="40" as="geometry" />
        </mxCell>
        <mxCell id="2gW1HQ8y5TxxJWkhXWdI-16" style="edgeStyle=orthogonalEdgeStyle;rounded=0;orthogonalLoop=1;jettySize=auto;html=1;entryX=1;entryY=0.5;entryDx=0;entryDy=0;exitX=0.5;exitY=1;exitDx=0;exitDy=0;endArrow=ERone;endFill=0;" parent="1" source="2gW1HQ8y5TxxJWkhXWdI-8" target="2gW1HQ8y5TxxJWkhXWdI-11" edge="1">
          <mxGeometry relative="1" as="geometry" />
        </mxCell>
        <mxCell id="2gW1HQ8y5TxxJWkhXWdI-17" style="edgeStyle=orthogonalEdgeStyle;rounded=0;orthogonalLoop=1;jettySize=auto;html=1;entryX=1;entryY=0.5;entryDx=0;entryDy=0;endArrow=ERone;endFill=0;" parent="1" source="2gW1HQ8y5TxxJWkhXWdI-8" target="2gW1HQ8y5TxxJWkhXWdI-12" edge="1">
          <mxGeometry relative="1" as="geometry">
            <Array as="points">
              <mxPoint x="460" y="710" />
            </Array>
          </mxGeometry>
        </mxCell>
        <mxCell id="2gW1HQ8y5TxxJWkhXWdI-18" style="edgeStyle=orthogonalEdgeStyle;rounded=0;orthogonalLoop=1;jettySize=auto;html=1;entryX=0;entryY=0.5;entryDx=0;entryDy=0;endArrow=ERone;endFill=0;" parent="1" source="CF5qxJ0rqfzSJKUL-HBB-100" target="2gW1HQ8y5TxxJWkhXWdI-14" edge="1">
          <mxGeometry relative="1" as="geometry" />
        </mxCell>
        <mxCell id="2gW1HQ8y5TxxJWkhXWdI-20" style="edgeStyle=orthogonalEdgeStyle;rounded=0;orthogonalLoop=1;jettySize=auto;html=1;entryX=0;entryY=0.5;entryDx=0;entryDy=0;exitX=0.5;exitY=1;exitDx=0;exitDy=0;startArrow=ERzeroToOne;startFill=0;endArrow=ERone;endFill=0;" parent="1" source="2gW1HQ8y5TxxJWkhXWdI-8" target="2gW1HQ8y5TxxJWkhXWdI-13" edge="1">
          <mxGeometry relative="1" as="geometry" />
        </mxCell>
        <mxCell id="2gW1HQ8y5TxxJWkhXWdI-8" value="Defined_Habit" style="shape=ext;margin=3;double=1;whiteSpace=wrap;html=1;align=center;" parent="1" vertex="1">
          <mxGeometry x="410" y="520" width="100" height="40" as="geometry" />
        </mxCell>
        <mxCell id="2gW1HQ8y5TxxJWkhXWdI-10" style="edgeStyle=orthogonalEdgeStyle;rounded=0;orthogonalLoop=1;jettySize=auto;html=1;entryX=0.5;entryY=0;entryDx=0;entryDy=0;endArrow=ERone;endFill=0;" parent="1" source="CF5qxJ0rqfzSJKUL-HBB-98" target="2gW1HQ8y5TxxJWkhXWdI-8" edge="1">
          <mxGeometry relative="1" as="geometry" />
        </mxCell>
        <mxCell id="2gW1HQ8y5TxxJWkhXWdI-11" value="WaterIntake" style="shape=ext;margin=3;double=1;whiteSpace=wrap;html=1;align=center;" parent="1" vertex="1">
          <mxGeometry x="260" y="600" width="100" height="40" as="geometry" />
        </mxCell>
        <mxCell id="2gW1HQ8y5TxxJWkhXWdI-12" value="FoodIntake" style="shape=ext;margin=3;double=1;whiteSpace=wrap;html=1;align=center;" parent="1" vertex="1">
          <mxGeometry x="340" y="690" width="100" height="40" as="geometry" />
        </mxCell>
        <mxCell id="2gW1HQ8y5TxxJWkhXWdI-13" value="SleepLog" style="shape=ext;margin=3;double=1;whiteSpace=wrap;html=1;align=center;" parent="1" vertex="1">
          <mxGeometry x="560" y="600" width="100" height="40" as="geometry" />
        </mxCell>
        <mxCell id="2gW1HQ8y5TxxJWkhXWdI-14" value="WorkoutLog" style="shape=ext;margin=3;double=1;whiteSpace=wrap;html=1;align=center;" parent="1" vertex="1">
          <mxGeometry x="480" y="690" width="100" height="40" as="geometry" />
        </mxCell>
        <mxCell id="2gW1HQ8y5TxxJWkhXWdI-21" value="&lt;span style=&quot;border-bottom: 1px dotted&quot;&gt;id&lt;/span&gt;" style="ellipse;whiteSpace=wrap;html=1;align=center;" parent="1" vertex="1">
          <mxGeometry x="110" y="580" width="60" height="30" as="geometry" />
        </mxCell>
        <mxCell id="2gW1HQ8y5TxxJWkhXWdI-23" value="" style="endArrow=none;html=1;rounded=0;entryX=1;entryY=0.5;entryDx=0;entryDy=0;exitX=0;exitY=0.5;exitDx=0;exitDy=0;" parent="1" source="2gW1HQ8y5TxxJWkhXWdI-11" target="2gW1HQ8y5TxxJWkhXWdI-21" edge="1">
          <mxGeometry relative="1" as="geometry">
            <mxPoint x="330" y="570" as="sourcePoint" />
            <mxPoint x="490" y="570" as="targetPoint" />
          </mxGeometry>
        </mxCell>
        <mxCell id="2gW1HQ8y5TxxJWkhXWdI-24" value="1" style="resizable=0;html=1;whiteSpace=wrap;align=right;verticalAlign=bottom;" parent="2gW1HQ8y5TxxJWkhXWdI-23" connectable="0" vertex="1">
          <mxGeometry x="1" relative="1" as="geometry">
            <mxPoint x="10" as="offset" />
          </mxGeometry>
        </mxCell>
        <mxCell id="2gW1HQ8y5TxxJWkhXWdI-25" value="user_id" style="ellipse;whiteSpace=wrap;html=1;align=center;fontStyle=4;" parent="1" vertex="1">
          <mxGeometry x="100" y="630" width="80" height="30" as="geometry" />
        </mxCell>
        <mxCell id="2gW1HQ8y5TxxJWkhXWdI-26" value="" style="endArrow=none;html=1;rounded=0;entryX=1;entryY=0.5;entryDx=0;entryDy=0;" parent="1" target="2gW1HQ8y5TxxJWkhXWdI-25" edge="1">
          <mxGeometry relative="1" as="geometry">
            <mxPoint x="260" y="620" as="sourcePoint" />
            <mxPoint x="440" y="600" as="targetPoint" />
          </mxGeometry>
        </mxCell>
        <mxCell id="2gW1HQ8y5TxxJWkhXWdI-27" value="M" style="resizable=0;html=1;whiteSpace=wrap;align=left;verticalAlign=bottom;" parent="2gW1HQ8y5TxxJWkhXWdI-26" connectable="0" vertex="1">
          <mxGeometry x="-1" relative="1" as="geometry">
            <mxPoint x="-27" y="16" as="offset" />
          </mxGeometry>
        </mxCell>
        <mxCell id="2gW1HQ8y5TxxJWkhXWdI-28" value="N" style="resizable=0;html=1;whiteSpace=wrap;align=right;verticalAlign=bottom;" parent="2gW1HQ8y5TxxJWkhXWdI-26" connectable="0" vertex="1">
          <mxGeometry x="1" relative="1" as="geometry">
            <mxPoint x="10" y="5" as="offset" />
          </mxGeometry>
        </mxCell>
        <mxCell id="2gW1HQ8y5TxxJWkhXWdI-29" value="amount_ml" style="ellipse;whiteSpace=wrap;html=1;align=center;" parent="1" vertex="1">
          <mxGeometry x="100" y="680" width="80" height="30" as="geometry" />
        </mxCell>
        <mxCell id="2gW1HQ8y5TxxJWkhXWdI-30" value="" style="endArrow=none;html=1;rounded=0;dashed=1;dashPattern=1 2;entryX=1;entryY=0.5;entryDx=0;entryDy=0;exitX=0;exitY=0.5;exitDx=0;exitDy=0;" parent="1" source="2gW1HQ8y5TxxJWkhXWdI-11" target="2gW1HQ8y5TxxJWkhXWdI-29" edge="1">
          <mxGeometry relative="1" as="geometry">
            <mxPoint x="320" y="610" as="sourcePoint" />
            <mxPoint x="480" y="610" as="targetPoint" />
          </mxGeometry>
        </mxCell>
        <mxCell id="2gW1HQ8y5TxxJWkhXWdI-32" value="timestamp" style="ellipse;whiteSpace=wrap;html=1;align=center;" parent="1" vertex="1">
          <mxGeometry x="110" y="720" width="80" height="30" as="geometry" />
        </mxCell>
        <mxCell id="2gW1HQ8y5TxxJWkhXWdI-33" value="" style="endArrow=none;html=1;rounded=0;dashed=1;dashPattern=1 2;entryX=1;entryY=0.5;entryDx=0;entryDy=0;exitX=-0.016;exitY=0.593;exitDx=0;exitDy=0;exitPerimeter=0;" parent="1" source="2gW1HQ8y5TxxJWkhXWdI-11" target="2gW1HQ8y5TxxJWkhXWdI-32" edge="1">
          <mxGeometry relative="1" as="geometry">
            <mxPoint x="290" y="660" as="sourcePoint" />
            <mxPoint x="510" y="650" as="targetPoint" />
          </mxGeometry>
        </mxCell>
        <mxCell id="2gW1HQ8y5TxxJWkhXWdI-35" value="N" style="resizable=0;html=1;whiteSpace=wrap;align=right;verticalAlign=bottom;" parent="1" connectable="0" vertex="1">
          <mxGeometry x="190" y="695" as="geometry" />
        </mxCell>
        <mxCell id="2gW1HQ8y5TxxJWkhXWdI-36" value="N" style="resizable=0;html=1;whiteSpace=wrap;align=right;verticalAlign=bottom;" parent="1" connectable="0" vertex="1">
          <mxGeometry x="200" y="735" as="geometry" />
        </mxCell>
        <mxCell id="2gW1HQ8y5TxxJWkhXWdI-37" value="&lt;span style=&quot;border-bottom: 1px dotted&quot;&gt;id&lt;/span&gt;" style="ellipse;whiteSpace=wrap;html=1;align=center;" parent="1" vertex="1">
          <mxGeometry x="255" y="720" width="60" height="30" as="geometry" />
        </mxCell>
        <mxCell id="2gW1HQ8y5TxxJWkhXWdI-38" value="" style="endArrow=none;html=1;rounded=0;entryX=1;entryY=0.5;entryDx=0;entryDy=0;" parent="1" target="2gW1HQ8y5TxxJWkhXWdI-37" edge="1">
          <mxGeometry relative="1" as="geometry">
            <mxPoint x="390" y="730" as="sourcePoint" />
            <mxPoint x="640" y="830" as="targetPoint" />
          </mxGeometry>
        </mxCell>
        <mxCell id="2gW1HQ8y5TxxJWkhXWdI-39" value="1" style="resizable=0;html=1;whiteSpace=wrap;align=right;verticalAlign=bottom;" parent="2gW1HQ8y5TxxJWkhXWdI-38" connectable="0" vertex="1">
          <mxGeometry x="1" relative="1" as="geometry">
            <mxPoint x="10" as="offset" />
          </mxGeometry>
        </mxCell>
        <mxCell id="2gW1HQ8y5TxxJWkhXWdI-40" value="user_id" style="ellipse;whiteSpace=wrap;html=1;align=center;fontStyle=4;" parent="1" vertex="1">
          <mxGeometry x="235" y="750" width="80" height="30" as="geometry" />
        </mxCell>
        <mxCell id="2gW1HQ8y5TxxJWkhXWdI-41" value="" style="endArrow=none;html=1;rounded=0;entryX=1;entryY=0.5;entryDx=0;entryDy=0;" parent="1" target="2gW1HQ8y5TxxJWkhXWdI-40" edge="1">
          <mxGeometry relative="1" as="geometry">
            <mxPoint x="390" y="730" as="sourcePoint" />
            <mxPoint x="590" y="740" as="targetPoint" />
          </mxGeometry>
        </mxCell>
        <mxCell id="2gW1HQ8y5TxxJWkhXWdI-42" value="M" style="resizable=0;html=1;whiteSpace=wrap;align=left;verticalAlign=bottom;" parent="2gW1HQ8y5TxxJWkhXWdI-41" connectable="0" vertex="1">
          <mxGeometry x="-1" relative="1" as="geometry">
            <mxPoint x="-40" y="22" as="offset" />
          </mxGeometry>
        </mxCell>
        <mxCell id="2gW1HQ8y5TxxJWkhXWdI-43" value="N" style="resizable=0;html=1;whiteSpace=wrap;align=right;verticalAlign=bottom;" parent="2gW1HQ8y5TxxJWkhXWdI-41" connectable="0" vertex="1">
          <mxGeometry x="1" relative="1" as="geometry">
            <mxPoint x="6" y="1" as="offset" />
          </mxGeometry>
        </mxCell>
        <mxCell id="2gW1HQ8y5TxxJWkhXWdI-44" value="calories" style="ellipse;whiteSpace=wrap;html=1;align=center;" parent="1" vertex="1">
          <mxGeometry x="255" y="785" width="80" height="30" as="geometry" />
        </mxCell>
        <mxCell id="2gW1HQ8y5TxxJWkhXWdI-45" value="" style="endArrow=none;html=1;rounded=0;dashed=1;dashPattern=1 2;entryX=1;entryY=0.5;entryDx=0;entryDy=0;" parent="1" target="2gW1HQ8y5TxxJWkhXWdI-44" edge="1">
          <mxGeometry relative="1" as="geometry">
            <mxPoint x="390" y="730" as="sourcePoint" />
            <mxPoint x="630" y="750" as="targetPoint" />
          </mxGeometry>
        </mxCell>
        <mxCell id="2gW1HQ8y5TxxJWkhXWdI-46" value="timestamp" style="ellipse;whiteSpace=wrap;html=1;align=center;" parent="1" vertex="1">
          <mxGeometry x="345" y="852" width="80" height="30" as="geometry" />
        </mxCell>
        <mxCell id="2gW1HQ8y5TxxJWkhXWdI-47" value="" style="endArrow=none;html=1;rounded=0;dashed=1;dashPattern=1 2;entryX=1;entryY=0.5;entryDx=0;entryDy=0;" parent="1" target="2gW1HQ8y5TxxJWkhXWdI-46" edge="1">
          <mxGeometry relative="1" as="geometry">
            <mxPoint x="390" y="730" as="sourcePoint" />
            <mxPoint x="660" y="790" as="targetPoint" />
          </mxGeometry>
        </mxCell>
        <mxCell id="2gW1HQ8y5TxxJWkhXWdI-49" value="N" style="resizable=0;html=1;whiteSpace=wrap;align=right;verticalAlign=bottom;" parent="1" connectable="0" vertex="1">
          <mxGeometry x="430" y="860" as="geometry" />
        </mxCell>
        <mxCell id="2gW1HQ8y5TxxJWkhXWdI-51" value="&lt;span style=&quot;border-bottom: 1px dotted&quot;&gt;id&lt;/span&gt;" style="ellipse;whiteSpace=wrap;html=1;align=center;" parent="1" vertex="1">
          <mxGeometry x="590" y="735" width="60" height="30" as="geometry" />
        </mxCell>
        <mxCell id="2gW1HQ8y5TxxJWkhXWdI-52" value="" style="endArrow=none;html=1;rounded=0;entryX=0;entryY=0.5;entryDx=0;entryDy=0;exitX=0.5;exitY=1;exitDx=0;exitDy=0;" parent="1" source="2gW1HQ8y5TxxJWkhXWdI-14" target="2gW1HQ8y5TxxJWkhXWdI-51" edge="1">
          <mxGeometry relative="1" as="geometry">
            <mxPoint x="610" y="750" as="sourcePoint" />
            <mxPoint x="860" y="850" as="targetPoint" />
          </mxGeometry>
        </mxCell>
        <mxCell id="2gW1HQ8y5TxxJWkhXWdI-53" value="1" style="resizable=0;html=1;whiteSpace=wrap;align=right;verticalAlign=bottom;" parent="2gW1HQ8y5TxxJWkhXWdI-52" connectable="0" vertex="1">
          <mxGeometry x="1" relative="1" as="geometry">
            <mxPoint x="1" y="1" as="offset" />
          </mxGeometry>
        </mxCell>
        <mxCell id="2gW1HQ8y5TxxJWkhXWdI-54" value="user_id" style="ellipse;whiteSpace=wrap;html=1;align=center;fontStyle=4;" parent="1" vertex="1">
          <mxGeometry x="598" y="785" width="82" height="30" as="geometry" />
        </mxCell>
        <mxCell id="2gW1HQ8y5TxxJWkhXWdI-55" value="" style="endArrow=none;html=1;rounded=0;entryX=0;entryY=0.5;entryDx=0;entryDy=0;" parent="1" target="2gW1HQ8y5TxxJWkhXWdI-54" edge="1">
          <mxGeometry relative="1" as="geometry">
            <mxPoint x="530" y="730" as="sourcePoint" />
            <mxPoint x="810" y="760" as="targetPoint" />
          </mxGeometry>
        </mxCell>
        <mxCell id="2gW1HQ8y5TxxJWkhXWdI-56" value="M" style="resizable=0;html=1;whiteSpace=wrap;align=left;verticalAlign=bottom;" parent="2gW1HQ8y5TxxJWkhXWdI-55" connectable="0" vertex="1">
          <mxGeometry x="-1" relative="1" as="geometry">
            <mxPoint x="9" y="25" as="offset" />
          </mxGeometry>
        </mxCell>
        <mxCell id="2gW1HQ8y5TxxJWkhXWdI-57" value="N" style="resizable=0;html=1;whiteSpace=wrap;align=right;verticalAlign=bottom;" parent="2gW1HQ8y5TxxJWkhXWdI-55" connectable="0" vertex="1">
          <mxGeometry x="1" relative="1" as="geometry">
            <mxPoint x="6" y="1" as="offset" />
          </mxGeometry>
        </mxCell>
        <mxCell id="2gW1HQ8y5TxxJWkhXWdI-58" value="duration" style="ellipse;whiteSpace=wrap;html=1;align=center;" parent="1" vertex="1">
          <mxGeometry x="540" y="815" width="80" height="30" as="geometry" />
        </mxCell>
        <mxCell id="2gW1HQ8y5TxxJWkhXWdI-59" value="" style="endArrow=none;html=1;rounded=0;dashed=1;dashPattern=1 2;entryX=0;entryY=0.5;entryDx=0;entryDy=0;" parent="1" target="2gW1HQ8y5TxxJWkhXWdI-58" edge="1">
          <mxGeometry relative="1" as="geometry">
            <mxPoint x="530" y="730" as="sourcePoint" />
            <mxPoint x="850" y="770" as="targetPoint" />
          </mxGeometry>
        </mxCell>
        <mxCell id="2gW1HQ8y5TxxJWkhXWdI-60" value="timestamp" style="ellipse;whiteSpace=wrap;html=1;align=center;" parent="1" vertex="1">
          <mxGeometry x="500" y="845" width="80" height="30" as="geometry" />
        </mxCell>
        <mxCell id="2gW1HQ8y5TxxJWkhXWdI-61" value="" style="endArrow=none;html=1;rounded=0;dashed=1;dashPattern=1 2;entryX=0;entryY=0.5;entryDx=0;entryDy=0;" parent="1" target="2gW1HQ8y5TxxJWkhXWdI-60" edge="1">
          <mxGeometry relative="1" as="geometry">
            <mxPoint x="530" y="730" as="sourcePoint" />
            <mxPoint x="880" y="810" as="targetPoint" />
          </mxGeometry>
        </mxCell>
        <mxCell id="2gW1HQ8y5TxxJWkhXWdI-62" value="N" style="resizable=0;html=1;whiteSpace=wrap;align=right;verticalAlign=bottom;" parent="1" connectable="0" vertex="1">
          <mxGeometry x="550" y="825" as="geometry" />
        </mxCell>
        <mxCell id="2gW1HQ8y5TxxJWkhXWdI-63" value="N" style="resizable=0;html=1;whiteSpace=wrap;align=right;verticalAlign=bottom;" parent="1" connectable="0" vertex="1">
          <mxGeometry x="511" y="852" as="geometry" />
        </mxCell>
        <mxCell id="2gW1HQ8y5TxxJWkhXWdI-65" style="edgeStyle=orthogonalEdgeStyle;rounded=0;orthogonalLoop=1;jettySize=auto;html=1;endArrow=none;endFill=0;startArrow=ERone;startFill=0;" parent="1" source="2gW1HQ8y5TxxJWkhXWdI-64" edge="1">
          <mxGeometry relative="1" as="geometry">
            <mxPoint x="650" y="420" as="targetPoint" />
          </mxGeometry>
        </mxCell>
        <mxCell id="CF5qxJ0rqfzSJKUL-HBB-54" style="edgeStyle=orthogonalEdgeStyle;rounded=0;orthogonalLoop=1;jettySize=auto;html=1;entryX=0.5;entryY=1;entryDx=0;entryDy=0;endArrow=ERone;endFill=0;" edge="1" parent="1" source="2gW1HQ8y5TxxJWkhXWdI-64" target="CF5qxJ0rqfzSJKUL-HBB-52">
          <mxGeometry relative="1" as="geometry" />
        </mxCell>
        <mxCell id="CF5qxJ0rqfzSJKUL-HBB-55" style="edgeStyle=orthogonalEdgeStyle;rounded=0;orthogonalLoop=1;jettySize=auto;html=1;entryX=0.5;entryY=0;entryDx=0;entryDy=0;endArrow=ERone;endFill=0;" edge="1" parent="1" source="2gW1HQ8y5TxxJWkhXWdI-64" target="CF5qxJ0rqfzSJKUL-HBB-53">
          <mxGeometry relative="1" as="geometry" />
        </mxCell>
        <mxCell id="2gW1HQ8y5TxxJWkhXWdI-64" value="Wellnest_Circle" style="whiteSpace=wrap;html=1;align=center;" parent="1" vertex="1">
          <mxGeometry x="730" y="400" width="100" height="40" as="geometry" />
        </mxCell>
        <mxCell id="2gW1HQ8y5TxxJWkhXWdI-68" style="edgeStyle=orthogonalEdgeStyle;rounded=0;orthogonalLoop=1;jettySize=auto;html=1;entryX=1;entryY=0.5;entryDx=0;entryDy=0;endArrow=ERzeroToOne;endFill=0;" parent="1" source="2gW1HQ8y5TxxJWkhXWdI-67" target="2gW1HQ8y5TxxJWkhXWdI-3" edge="1">
          <mxGeometry relative="1" as="geometry" />
        </mxCell>
        <mxCell id="2gW1HQ8y5TxxJWkhXWdI-67" value="Creates" style="shape=rhombus;perimeter=rhombusPerimeter;whiteSpace=wrap;html=1;align=center;" parent="1" vertex="1">
          <mxGeometry x="570" y="400" width="80" height="40" as="geometry" />
        </mxCell>
        <mxCell id="2gW1HQ8y5TxxJWkhXWdI-70" value="&lt;span style=&quot;border-bottom: 1px dotted&quot;&gt;id&lt;/span&gt;" style="ellipse;whiteSpace=wrap;html=1;align=center;" parent="1" vertex="1">
          <mxGeometry x="750" y="595" width="60" height="30" as="geometry" />
        </mxCell>
        <mxCell id="2gW1HQ8y5TxxJWkhXWdI-71" value="" style="endArrow=none;html=1;rounded=0;entryX=0;entryY=0.5;entryDx=0;entryDy=0;" parent="1" target="2gW1HQ8y5TxxJWkhXWdI-70" edge="1">
          <mxGeometry relative="1" as="geometry">
            <mxPoint x="660" y="620" as="sourcePoint" />
            <mxPoint x="1020" y="710" as="targetPoint" />
          </mxGeometry>
        </mxCell>
        <mxCell id="2gW1HQ8y5TxxJWkhXWdI-72" value="1" style="resizable=0;html=1;whiteSpace=wrap;align=right;verticalAlign=bottom;" parent="2gW1HQ8y5TxxJWkhXWdI-71" connectable="0" vertex="1">
          <mxGeometry x="1" relative="1" as="geometry">
            <mxPoint x="1" y="1" as="offset" />
          </mxGeometry>
        </mxCell>
        <mxCell id="2gW1HQ8y5TxxJWkhXWdI-73" value="user_id" style="ellipse;whiteSpace=wrap;html=1;align=center;fontStyle=4;" parent="1" vertex="1">
          <mxGeometry x="758" y="645" width="82" height="30" as="geometry" />
        </mxCell>
        <mxCell id="2gW1HQ8y5TxxJWkhXWdI-74" value="" style="endArrow=none;html=1;rounded=0;entryX=0;entryY=0.5;entryDx=0;entryDy=0;" parent="1" target="2gW1HQ8y5TxxJWkhXWdI-73" edge="1">
          <mxGeometry relative="1" as="geometry">
            <mxPoint x="660" y="620" as="sourcePoint" />
            <mxPoint x="970" y="620" as="targetPoint" />
          </mxGeometry>
        </mxCell>
        <mxCell id="2gW1HQ8y5TxxJWkhXWdI-75" value="M" style="resizable=0;html=1;whiteSpace=wrap;align=left;verticalAlign=bottom;" parent="2gW1HQ8y5TxxJWkhXWdI-74" connectable="0" vertex="1">
          <mxGeometry x="-1" relative="1" as="geometry">
            <mxPoint x="9" y="25" as="offset" />
          </mxGeometry>
        </mxCell>
        <mxCell id="2gW1HQ8y5TxxJWkhXWdI-76" value="N" style="resizable=0;html=1;whiteSpace=wrap;align=right;verticalAlign=bottom;" parent="2gW1HQ8y5TxxJWkhXWdI-74" connectable="0" vertex="1">
          <mxGeometry x="1" relative="1" as="geometry">
            <mxPoint x="6" y="1" as="offset" />
          </mxGeometry>
        </mxCell>
        <mxCell id="2gW1HQ8y5TxxJWkhXWdI-77" value="duration" style="ellipse;whiteSpace=wrap;html=1;align=center;" parent="1" vertex="1">
          <mxGeometry x="700" y="675" width="80" height="30" as="geometry" />
        </mxCell>
        <mxCell id="2gW1HQ8y5TxxJWkhXWdI-78" value="" style="endArrow=none;html=1;rounded=0;dashed=1;dashPattern=1 2;entryX=0;entryY=0.5;entryDx=0;entryDy=0;" parent="1" target="2gW1HQ8y5TxxJWkhXWdI-77" edge="1">
          <mxGeometry relative="1" as="geometry">
            <mxPoint x="660" y="620" as="sourcePoint" />
            <mxPoint x="1010" y="630" as="targetPoint" />
          </mxGeometry>
        </mxCell>
        <mxCell id="2gW1HQ8y5TxxJWkhXWdI-79" value="timestamp" style="ellipse;whiteSpace=wrap;html=1;align=center;" parent="1" vertex="1">
          <mxGeometry x="660" y="705" width="80" height="30" as="geometry" />
        </mxCell>
        <mxCell id="2gW1HQ8y5TxxJWkhXWdI-80" value="" style="endArrow=none;html=1;rounded=0;dashed=1;dashPattern=1 2;entryX=0;entryY=0.5;entryDx=0;entryDy=0;exitX=1;exitY=0.5;exitDx=0;exitDy=0;" parent="1" source="2gW1HQ8y5TxxJWkhXWdI-13" target="2gW1HQ8y5TxxJWkhXWdI-79" edge="1">
          <mxGeometry relative="1" as="geometry">
            <mxPoint x="690" y="590" as="sourcePoint" />
            <mxPoint x="1040" y="670" as="targetPoint" />
          </mxGeometry>
        </mxCell>
        <mxCell id="2gW1HQ8y5TxxJWkhXWdI-81" value="N" style="resizable=0;html=1;whiteSpace=wrap;align=right;verticalAlign=bottom;" parent="1" connectable="0" vertex="1">
          <mxGeometry x="710" y="685" as="geometry" />
        </mxCell>
        <mxCell id="2gW1HQ8y5TxxJWkhXWdI-82" value="N" style="resizable=0;html=1;whiteSpace=wrap;align=right;verticalAlign=bottom;" parent="1" connectable="0" vertex="1">
          <mxGeometry x="671" y="712" as="geometry" />
        </mxCell>
        <mxCell id="CF5qxJ0rqfzSJKUL-HBB-4" value="Joins" style="shape=associativeEntity;whiteSpace=wrap;html=1;align=center;" vertex="1" parent="1">
          <mxGeometry x="410" y="100" width="90" height="40" as="geometry" />
        </mxCell>
        <mxCell id="CF5qxJ0rqfzSJKUL-HBB-5" value="" style="edgeStyle=orthogonalEdgeStyle;fontSize=12;html=1;endArrow=ERzeroToMany;endFill=1;rounded=0;entryX=0.5;entryY=0;entryDx=0;entryDy=0;" edge="1" parent="1" target="2gW1HQ8y5TxxJWkhXWdI-1">
          <mxGeometry width="100" height="100" relative="1" as="geometry">
            <mxPoint x="130" y="280" as="sourcePoint" />
            <mxPoint x="140" y="380" as="targetPoint" />
          </mxGeometry>
        </mxCell>
        <mxCell id="CF5qxJ0rqfzSJKUL-HBB-8" value="" style="edgeStyle=orthogonalEdgeStyle;fontSize=12;html=1;endArrow=ERoneToMany;rounded=0;exitX=1;exitY=0.5;exitDx=0;exitDy=0;entryX=0.5;entryY=0;entryDx=0;entryDy=0;" edge="1" parent="1" source="CF5qxJ0rqfzSJKUL-HBB-4" target="2gW1HQ8y5TxxJWkhXWdI-64">
          <mxGeometry width="100" height="100" relative="1" as="geometry">
            <mxPoint x="870" y="190" as="sourcePoint" />
            <mxPoint x="790" y="370" as="targetPoint" />
          </mxGeometry>
        </mxCell>
        <mxCell id="CF5qxJ0rqfzSJKUL-HBB-19" value="&lt;span style=&quot;border-bottom: 1px dotted&quot;&gt;id&lt;/span&gt;" style="ellipse;whiteSpace=wrap;html=1;align=center;" vertex="1" parent="1">
          <mxGeometry x="532" y="232" width="49" height="30" as="geometry" />
        </mxCell>
        <mxCell id="CF5qxJ0rqfzSJKUL-HBB-20" value="" style="endArrow=none;html=1;rounded=0;entryX=0;entryY=0.5;entryDx=0;entryDy=0;exitX=1;exitY=0.5;exitDx=0;exitDy=0;" edge="1" parent="1" target="CF5qxJ0rqfzSJKUL-HBB-19" source="2gW1HQ8y5TxxJWkhXWdI-7">
          <mxGeometry relative="1" as="geometry">
            <mxPoint x="671" y="260" as="sourcePoint" />
            <mxPoint x="901" y="210" as="targetPoint" />
          </mxGeometry>
        </mxCell>
        <mxCell id="CF5qxJ0rqfzSJKUL-HBB-21" value="1" style="resizable=0;html=1;whiteSpace=wrap;align=right;verticalAlign=bottom;" connectable="0" vertex="1" parent="CF5qxJ0rqfzSJKUL-HBB-20">
          <mxGeometry x="1" relative="1" as="geometry">
            <mxPoint x="3" y="3" as="offset" />
          </mxGeometry>
        </mxCell>
        <mxCell id="CF5qxJ0rqfzSJKUL-HBB-22" value="user_id" style="ellipse;whiteSpace=wrap;html=1;align=center;fontStyle=4;" vertex="1" parent="1">
          <mxGeometry x="471" y="190" width="80" height="30" as="geometry" />
        </mxCell>
        <mxCell id="CF5qxJ0rqfzSJKUL-HBB-23" value="" style="endArrow=none;html=1;rounded=0;entryX=0.363;entryY=0.96;entryDx=0;entryDy=0;entryPerimeter=0;" edge="1" parent="1" target="CF5qxJ0rqfzSJKUL-HBB-22">
          <mxGeometry relative="1" as="geometry">
            <mxPoint x="460" y="242" as="sourcePoint" />
            <mxPoint x="630" y="112" as="targetPoint" />
          </mxGeometry>
        </mxCell>
        <mxCell id="CF5qxJ0rqfzSJKUL-HBB-24" value="M" style="resizable=0;html=1;whiteSpace=wrap;align=left;verticalAlign=bottom;" connectable="0" vertex="1" parent="CF5qxJ0rqfzSJKUL-HBB-23">
          <mxGeometry x="-1" relative="1" as="geometry">
            <mxPoint x="5" y="2" as="offset" />
          </mxGeometry>
        </mxCell>
        <mxCell id="CF5qxJ0rqfzSJKUL-HBB-25" value="N" style="resizable=0;html=1;whiteSpace=wrap;align=right;verticalAlign=bottom;" connectable="0" vertex="1" parent="CF5qxJ0rqfzSJKUL-HBB-23">
          <mxGeometry x="1" relative="1" as="geometry">
            <mxPoint y="13" as="offset" />
          </mxGeometry>
        </mxCell>
        <mxCell id="CF5qxJ0rqfzSJKUL-HBB-26" value="recorded value" style="ellipse;whiteSpace=wrap;html=1;align=center;" vertex="1" parent="1">
          <mxGeometry x="350" y="192" width="80" height="30" as="geometry" />
        </mxCell>
        <mxCell id="CF5qxJ0rqfzSJKUL-HBB-27" value="" style="endArrow=none;html=1;rounded=0;dashed=1;dashPattern=1 2;entryX=1;entryY=0.5;entryDx=0;entryDy=0;exitX=0.5;exitY=0;exitDx=0;exitDy=0;" edge="1" parent="1" target="CF5qxJ0rqfzSJKUL-HBB-26" source="2gW1HQ8y5TxxJWkhXWdI-7">
          <mxGeometry relative="1" as="geometry">
            <mxPoint x="450" y="132" as="sourcePoint" />
            <mxPoint x="670" y="122" as="targetPoint" />
          </mxGeometry>
        </mxCell>
        <mxCell id="CF5qxJ0rqfzSJKUL-HBB-28" value="timestamp" style="ellipse;whiteSpace=wrap;html=1;align=center;" vertex="1" parent="1">
          <mxGeometry x="300" y="232" width="80" height="30" as="geometry" />
        </mxCell>
        <mxCell id="CF5qxJ0rqfzSJKUL-HBB-29" value="" style="endArrow=none;html=1;rounded=0;dashed=1;dashPattern=1 2;entryX=1;entryY=0.5;entryDx=0;entryDy=0;exitX=0;exitY=0.5;exitDx=0;exitDy=0;" edge="1" parent="1" target="CF5qxJ0rqfzSJKUL-HBB-28" source="2gW1HQ8y5TxxJWkhXWdI-7">
          <mxGeometry relative="1" as="geometry">
            <mxPoint x="448" y="136" as="sourcePoint" />
            <mxPoint x="700" y="162" as="targetPoint" />
          </mxGeometry>
        </mxCell>
        <mxCell id="CF5qxJ0rqfzSJKUL-HBB-30" value="N" style="resizable=0;html=1;whiteSpace=wrap;align=right;verticalAlign=bottom;" connectable="0" vertex="1" parent="1">
          <mxGeometry x="442" y="220" as="geometry" />
        </mxCell>
        <mxCell id="CF5qxJ0rqfzSJKUL-HBB-31" value="N" style="resizable=0;html=1;whiteSpace=wrap;align=right;verticalAlign=bottom;" connectable="0" vertex="1" parent="1">
          <mxGeometry x="390" y="247" as="geometry" />
        </mxCell>
        <mxCell id="CF5qxJ0rqfzSJKUL-HBB-33" value="encrypted password&amp;nbsp;" style="ellipse;whiteSpace=wrap;html=1;align=center;" vertex="1" parent="1">
          <mxGeometry x="15" y="330" width="100" height="40" as="geometry" />
        </mxCell>
        <mxCell id="CF5qxJ0rqfzSJKUL-HBB-34" value="username" style="ellipse;whiteSpace=wrap;html=1;align=center;" vertex="1" parent="1">
          <mxGeometry x="10" y="380" width="60" height="40" as="geometry" />
        </mxCell>
        <mxCell id="CF5qxJ0rqfzSJKUL-HBB-35" value="name" style="ellipse;whiteSpace=wrap;html=1;align=center;" vertex="1" parent="1">
          <mxGeometry x="425" y="160" width="60" height="30" as="geometry" />
        </mxCell>
        <mxCell id="CF5qxJ0rqfzSJKUL-HBB-37" value="" style="endArrow=none;html=1;rounded=0;entryX=0.5;entryY=1;entryDx=0;entryDy=0;" edge="1" parent="1" source="2gW1HQ8y5TxxJWkhXWdI-7" target="CF5qxJ0rqfzSJKUL-HBB-35">
          <mxGeometry relative="1" as="geometry">
            <mxPoint x="420" y="312" as="sourcePoint" />
            <mxPoint x="580" y="312" as="targetPoint" />
          </mxGeometry>
        </mxCell>
        <mxCell id="CF5qxJ0rqfzSJKUL-HBB-38" value="1" style="resizable=0;html=1;whiteSpace=wrap;align=right;verticalAlign=bottom;" connectable="0" vertex="1" parent="CF5qxJ0rqfzSJKUL-HBB-37">
          <mxGeometry x="1" relative="1" as="geometry">
            <mxPoint x="1" y="7" as="offset" />
          </mxGeometry>
        </mxCell>
        <mxCell id="CF5qxJ0rqfzSJKUL-HBB-39" value="email" style="ellipse;whiteSpace=wrap;html=1;align=center;" vertex="1" parent="1">
          <mxGeometry x="10" y="430" width="40" height="30" as="geometry" />
        </mxCell>
        <mxCell id="CF5qxJ0rqfzSJKUL-HBB-40" value="id" style="ellipse;whiteSpace=wrap;html=1;align=center;" vertex="1" parent="1">
          <mxGeometry x="75" y="490" width="40" height="30" as="geometry" />
        </mxCell>
        <mxCell id="CF5qxJ0rqfzSJKUL-HBB-41" value="created_at" style="ellipse;whiteSpace=wrap;html=1;align=center;" vertex="1" parent="1">
          <mxGeometry x="115" y="500" width="70" height="30" as="geometry" />
        </mxCell>
        <mxCell id="CF5qxJ0rqfzSJKUL-HBB-42" value="" style="endArrow=none;html=1;rounded=0;entryX=0.5;entryY=0;entryDx=0;entryDy=0;exitX=0.5;exitY=1;exitDx=0;exitDy=0;" edge="1" parent="1" source="2gW1HQ8y5TxxJWkhXWdI-1" target="CF5qxJ0rqfzSJKUL-HBB-41">
          <mxGeometry relative="1" as="geometry">
            <mxPoint x="120" y="420" as="sourcePoint" />
            <mxPoint x="280" y="420" as="targetPoint" />
          </mxGeometry>
        </mxCell>
        <mxCell id="CF5qxJ0rqfzSJKUL-HBB-43" value="1" style="resizable=0;html=1;whiteSpace=wrap;align=right;verticalAlign=bottom;" connectable="0" vertex="1" parent="CF5qxJ0rqfzSJKUL-HBB-42">
          <mxGeometry x="1" relative="1" as="geometry" />
        </mxCell>
        <mxCell id="CF5qxJ0rqfzSJKUL-HBB-44" value="" style="endArrow=none;html=1;rounded=0;exitX=0.5;exitY=1;exitDx=0;exitDy=0;" edge="1" parent="1" source="2gW1HQ8y5TxxJWkhXWdI-1" target="CF5qxJ0rqfzSJKUL-HBB-40">
          <mxGeometry relative="1" as="geometry">
            <mxPoint x="120" y="420" as="sourcePoint" />
            <mxPoint x="280" y="420" as="targetPoint" />
          </mxGeometry>
        </mxCell>
        <mxCell id="CF5qxJ0rqfzSJKUL-HBB-45" value="1" style="resizable=0;html=1;whiteSpace=wrap;align=right;verticalAlign=bottom;" connectable="0" vertex="1" parent="CF5qxJ0rqfzSJKUL-HBB-44">
          <mxGeometry x="1" relative="1" as="geometry" />
        </mxCell>
        <mxCell id="CF5qxJ0rqfzSJKUL-HBB-46" value="" style="endArrow=none;html=1;rounded=0;exitX=0;exitY=0.5;exitDx=0;exitDy=0;entryX=1;entryY=0.333;entryDx=0;entryDy=0;entryPerimeter=0;" edge="1" parent="1" source="2gW1HQ8y5TxxJWkhXWdI-1" target="CF5qxJ0rqfzSJKUL-HBB-39">
          <mxGeometry relative="1" as="geometry">
            <mxPoint x="100" y="510" as="sourcePoint" />
            <mxPoint x="260" y="510" as="targetPoint" />
          </mxGeometry>
        </mxCell>
        <mxCell id="CF5qxJ0rqfzSJKUL-HBB-47" value="1" style="resizable=0;html=1;whiteSpace=wrap;align=right;verticalAlign=bottom;" connectable="0" vertex="1" parent="CF5qxJ0rqfzSJKUL-HBB-46">
          <mxGeometry x="1" relative="1" as="geometry">
            <mxPoint as="offset" />
          </mxGeometry>
        </mxCell>
        <mxCell id="CF5qxJ0rqfzSJKUL-HBB-48" value="" style="endArrow=none;html=1;rounded=0;exitX=0;exitY=0.5;exitDx=0;exitDy=0;entryX=1;entryY=0.5;entryDx=0;entryDy=0;" edge="1" parent="1" source="2gW1HQ8y5TxxJWkhXWdI-1" target="CF5qxJ0rqfzSJKUL-HBB-34">
          <mxGeometry relative="1" as="geometry">
            <mxPoint x="90" y="440" as="sourcePoint" />
            <mxPoint x="60" y="480" as="targetPoint" />
          </mxGeometry>
        </mxCell>
        <mxCell id="CF5qxJ0rqfzSJKUL-HBB-49" value="1" style="resizable=0;html=1;whiteSpace=wrap;align=right;verticalAlign=bottom;" connectable="0" vertex="1" parent="CF5qxJ0rqfzSJKUL-HBB-48">
          <mxGeometry x="1" relative="1" as="geometry">
            <mxPoint x="6" y="2" as="offset" />
          </mxGeometry>
        </mxCell>
        <mxCell id="CF5qxJ0rqfzSJKUL-HBB-50" value="" style="endArrow=none;html=1;rounded=0;exitX=0.108;exitY=-0.03;exitDx=0;exitDy=0;entryX=0.649;entryY=0.932;entryDx=0;entryDy=0;entryPerimeter=0;exitPerimeter=0;" edge="1" parent="1" source="2gW1HQ8y5TxxJWkhXWdI-1" target="CF5qxJ0rqfzSJKUL-HBB-33">
          <mxGeometry relative="1" as="geometry">
            <mxPoint x="90" y="430" as="sourcePoint" />
            <mxPoint x="60" y="470" as="targetPoint" />
          </mxGeometry>
        </mxCell>
        <mxCell id="CF5qxJ0rqfzSJKUL-HBB-51" value="1" style="resizable=0;html=1;whiteSpace=wrap;align=right;verticalAlign=bottom;" connectable="0" vertex="1" parent="CF5qxJ0rqfzSJKUL-HBB-50">
          <mxGeometry x="1" relative="1" as="geometry">
            <mxPoint x="9" y="10" as="offset" />
          </mxGeometry>
        </mxCell>
        <mxCell id="CF5qxJ0rqfzSJKUL-HBB-52" value="Streak" style="shape=ext;margin=3;double=1;whiteSpace=wrap;html=1;align=center;" vertex="1" parent="1">
          <mxGeometry x="960" y="242" width="100" height="40" as="geometry" />
        </mxCell>
        <mxCell id="CF5qxJ0rqfzSJKUL-HBB-53" value="Leaderboard" style="shape=ext;margin=3;double=1;whiteSpace=wrap;html=1;align=center;" vertex="1" parent="1">
          <mxGeometry x="960" y="530" width="100" height="40" as="geometry" />
        </mxCell>
        <mxCell id="CF5qxJ0rqfzSJKUL-HBB-59" value="Has" style="shape=rhombus;perimeter=rhombusPerimeter;whiteSpace=wrap;html=1;align=center;" vertex="1" parent="1">
          <mxGeometry x="975" y="340" width="70" height="40" as="geometry" />
        </mxCell>
        <mxCell id="CF5qxJ0rqfzSJKUL-HBB-60" value="Tracked by" style="shape=rhombus;perimeter=rhombusPerimeter;whiteSpace=wrap;html=1;align=center;" vertex="1" parent="1">
          <mxGeometry x="962.5" y="460" width="95" height="40" as="geometry" />
        </mxCell>
        <mxCell id="CF5qxJ0rqfzSJKUL-HBB-61" value="id" style="ellipse;whiteSpace=wrap;html=1;align=center;fontStyle=4;" vertex="1" parent="1">
          <mxGeometry x="1100" y="530" width="50" height="40" as="geometry" />
        </mxCell>
        <mxCell id="CF5qxJ0rqfzSJKUL-HBB-62" value="group id" style="ellipse;whiteSpace=wrap;html=1;align=center;fontStyle=4;" vertex="1" parent="1">
          <mxGeometry x="1080" y="590" width="60" height="40" as="geometry" />
        </mxCell>
        <mxCell id="CF5qxJ0rqfzSJKUL-HBB-63" value="last_updated" style="ellipse;whiteSpace=wrap;html=1;align=center;fontStyle=4;" vertex="1" parent="1">
          <mxGeometry x="980" y="600" width="80" height="40" as="geometry" />
        </mxCell>
        <mxCell id="CF5qxJ0rqfzSJKUL-HBB-64" value="score" style="ellipse;whiteSpace=wrap;html=1;align=center;fontStyle=4;" vertex="1" parent="1">
          <mxGeometry x="890" y="590" width="80" height="40" as="geometry" />
        </mxCell>
        <mxCell id="CF5qxJ0rqfzSJKUL-HBB-65" value="user_id" style="ellipse;whiteSpace=wrap;html=1;align=center;fontStyle=4;" vertex="1" parent="1">
          <mxGeometry x="840" y="540" width="80" height="40" as="geometry" />
        </mxCell>
        <mxCell id="CF5qxJ0rqfzSJKUL-HBB-66" value="" style="endArrow=none;html=1;rounded=0;entryX=1;entryY=0.5;entryDx=0;entryDy=0;exitX=0;exitY=0.5;exitDx=0;exitDy=0;" edge="1" parent="1" source="CF5qxJ0rqfzSJKUL-HBB-53" target="CF5qxJ0rqfzSJKUL-HBB-65">
          <mxGeometry relative="1" as="geometry">
            <mxPoint x="890" y="580" as="sourcePoint" />
            <mxPoint x="1050" y="580" as="targetPoint" />
          </mxGeometry>
        </mxCell>
        <mxCell id="CF5qxJ0rqfzSJKUL-HBB-67" value="N" style="resizable=0;html=1;whiteSpace=wrap;align=right;verticalAlign=bottom;" connectable="0" vertex="1" parent="CF5qxJ0rqfzSJKUL-HBB-66">
          <mxGeometry x="1" relative="1" as="geometry">
            <mxPoint x="10" as="offset" />
          </mxGeometry>
        </mxCell>
        <mxCell id="CF5qxJ0rqfzSJKUL-HBB-68" value="" style="endArrow=none;html=1;rounded=0;entryX=0.5;entryY=1;entryDx=0;entryDy=0;" edge="1" parent="1" source="CF5qxJ0rqfzSJKUL-HBB-64" target="CF5qxJ0rqfzSJKUL-HBB-53">
          <mxGeometry relative="1" as="geometry">
            <mxPoint x="890" y="580" as="sourcePoint" />
            <mxPoint x="1050" y="580" as="targetPoint" />
          </mxGeometry>
        </mxCell>
        <mxCell id="CF5qxJ0rqfzSJKUL-HBB-70" value="N" style="resizable=0;html=1;whiteSpace=wrap;align=right;verticalAlign=bottom;" connectable="0" vertex="1" parent="CF5qxJ0rqfzSJKUL-HBB-68">
          <mxGeometry x="1" relative="1" as="geometry">
            <mxPoint x="-47" y="30" as="offset" />
          </mxGeometry>
        </mxCell>
        <mxCell id="CF5qxJ0rqfzSJKUL-HBB-71" value="" style="endArrow=none;html=1;rounded=0;entryX=0.5;entryY=0;entryDx=0;entryDy=0;" edge="1" parent="1" target="CF5qxJ0rqfzSJKUL-HBB-63">
          <mxGeometry relative="1" as="geometry">
            <mxPoint x="1010" y="570" as="sourcePoint" />
            <mxPoint x="1050" y="580" as="targetPoint" />
          </mxGeometry>
        </mxCell>
        <mxCell id="CF5qxJ0rqfzSJKUL-HBB-72" value="1" style="resizable=0;html=1;whiteSpace=wrap;align=right;verticalAlign=bottom;" connectable="0" vertex="1" parent="CF5qxJ0rqfzSJKUL-HBB-71">
          <mxGeometry x="1" relative="1" as="geometry">
            <mxPoint x="-1" y="3" as="offset" />
          </mxGeometry>
        </mxCell>
        <mxCell id="CF5qxJ0rqfzSJKUL-HBB-73" value="" style="endArrow=none;html=1;rounded=0;entryX=0.25;entryY=0.092;entryDx=0;entryDy=0;entryPerimeter=0;" edge="1" parent="1" target="CF5qxJ0rqfzSJKUL-HBB-62">
          <mxGeometry relative="1" as="geometry">
            <mxPoint x="1010" y="570" as="sourcePoint" />
            <mxPoint x="1020" y="610" as="targetPoint" />
          </mxGeometry>
        </mxCell>
        <mxCell id="CF5qxJ0rqfzSJKUL-HBB-74" value="1" style="resizable=0;html=1;whiteSpace=wrap;align=right;verticalAlign=bottom;" connectable="0" vertex="1" parent="CF5qxJ0rqfzSJKUL-HBB-73">
          <mxGeometry x="1" relative="1" as="geometry" />
        </mxCell>
        <mxCell id="CF5qxJ0rqfzSJKUL-HBB-75" value="" style="endArrow=none;html=1;rounded=0;entryX=0;entryY=0.5;entryDx=0;entryDy=0;" edge="1" parent="1" target="CF5qxJ0rqfzSJKUL-HBB-61">
          <mxGeometry relative="1" as="geometry">
            <mxPoint x="1060" y="550" as="sourcePoint" />
            <mxPoint x="1175" y="594" as="targetPoint" />
          </mxGeometry>
        </mxCell>
        <mxCell id="CF5qxJ0rqfzSJKUL-HBB-76" value="1" style="resizable=0;html=1;whiteSpace=wrap;align=right;verticalAlign=bottom;" connectable="0" vertex="1" parent="CF5qxJ0rqfzSJKUL-HBB-75">
          <mxGeometry x="1" relative="1" as="geometry" />
        </mxCell>
        <mxCell id="CF5qxJ0rqfzSJKUL-HBB-77" value="id" style="ellipse;whiteSpace=wrap;html=1;align=center;fontStyle=4;" vertex="1" parent="1">
          <mxGeometry x="1120" y="210" width="40" height="20" as="geometry" />
        </mxCell>
        <mxCell id="CF5qxJ0rqfzSJKUL-HBB-78" value="user_id" style="ellipse;whiteSpace=wrap;html=1;align=center;fontStyle=4;" vertex="1" parent="1">
          <mxGeometry x="1060" y="170" width="52.5" height="20" as="geometry" />
        </mxCell>
        <mxCell id="CF5qxJ0rqfzSJKUL-HBB-79" value="habit_id" style="ellipse;whiteSpace=wrap;html=1;align=center;fontStyle=4;" vertex="1" parent="1">
          <mxGeometry x="992.5" y="150" width="52.5" height="30" as="geometry" />
        </mxCell>
        <mxCell id="CF5qxJ0rqfzSJKUL-HBB-80" value="last_updated" style="ellipse;whiteSpace=wrap;html=1;align=center;fontStyle=4;" vertex="1" parent="1">
          <mxGeometry x="885" y="145" width="90" height="40" as="geometry" />
        </mxCell>
        <mxCell id="CF5qxJ0rqfzSJKUL-HBB-81" value="longest_streak" style="ellipse;whiteSpace=wrap;html=1;align=center;fontStyle=4;" vertex="1" parent="1">
          <mxGeometry x="840" y="190" width="90" height="40" as="geometry" />
        </mxCell>
        <mxCell id="CF5qxJ0rqfzSJKUL-HBB-82" value="current_streak" style="ellipse;whiteSpace=wrap;html=1;align=center;fontStyle=4;" vertex="1" parent="1">
          <mxGeometry x="835" y="242" width="90" height="40" as="geometry" />
        </mxCell>
        <mxCell id="CF5qxJ0rqfzSJKUL-HBB-83" value="" style="endArrow=none;html=1;rounded=0;entryX=0.3;entryY=0.985;entryDx=0;entryDy=0;exitX=1;exitY=0.5;exitDx=0;exitDy=0;entryPerimeter=0;" edge="1" parent="1" target="CF5qxJ0rqfzSJKUL-HBB-77">
          <mxGeometry relative="1" as="geometry">
            <mxPoint x="1060" y="264.93" as="sourcePoint" />
            <mxPoint x="1125.8578643762692" y="230.0010678118653" as="targetPoint" />
          </mxGeometry>
        </mxCell>
        <mxCell id="CF5qxJ0rqfzSJKUL-HBB-84" value="1" style="resizable=0;html=1;whiteSpace=wrap;align=right;verticalAlign=bottom;" connectable="0" vertex="1" parent="CF5qxJ0rqfzSJKUL-HBB-83">
          <mxGeometry x="1" relative="1" as="geometry">
            <mxPoint x="-9" y="10" as="offset" />
          </mxGeometry>
        </mxCell>
        <mxCell id="CF5qxJ0rqfzSJKUL-HBB-85" value="" style="endArrow=none;html=1;rounded=0;entryX=0.302;entryY=0.927;entryDx=0;entryDy=0;exitX=0.5;exitY=0;exitDx=0;exitDy=0;entryPerimeter=0;" edge="1" parent="1" source="CF5qxJ0rqfzSJKUL-HBB-52" target="CF5qxJ0rqfzSJKUL-HBB-78">
          <mxGeometry relative="1" as="geometry">
            <mxPoint x="1100" y="284.93" as="sourcePoint" />
            <mxPoint x="1172" y="250" as="targetPoint" />
          </mxGeometry>
        </mxCell>
        <mxCell id="CF5qxJ0rqfzSJKUL-HBB-86" value="N" style="resizable=0;html=1;whiteSpace=wrap;align=right;verticalAlign=bottom;" connectable="0" vertex="1" parent="CF5qxJ0rqfzSJKUL-HBB-85">
          <mxGeometry x="1" relative="1" as="geometry">
            <mxPoint x="-9" y="13" as="offset" />
          </mxGeometry>
        </mxCell>
        <mxCell id="CF5qxJ0rqfzSJKUL-HBB-87" value="" style="endArrow=none;html=1;rounded=0;entryX=0.5;entryY=1;entryDx=0;entryDy=0;exitX=0.5;exitY=0;exitDx=0;exitDy=0;" edge="1" parent="1" source="CF5qxJ0rqfzSJKUL-HBB-52" target="CF5qxJ0rqfzSJKUL-HBB-79">
          <mxGeometry relative="1" as="geometry">
            <mxPoint x="1060" y="249" as="sourcePoint" />
            <mxPoint x="1135" y="200" as="targetPoint" />
          </mxGeometry>
        </mxCell>
        <mxCell id="CF5qxJ0rqfzSJKUL-HBB-88" value="1" style="resizable=0;html=1;whiteSpace=wrap;align=right;verticalAlign=bottom;" connectable="0" vertex="1" parent="CF5qxJ0rqfzSJKUL-HBB-87">
          <mxGeometry x="1" relative="1" as="geometry">
            <mxPoint x="-3" y="16" as="offset" />
          </mxGeometry>
        </mxCell>
        <mxCell id="CF5qxJ0rqfzSJKUL-HBB-89" value="" style="endArrow=none;html=1;rounded=0;entryX=1;entryY=1;entryDx=0;entryDy=0;exitX=0.5;exitY=0;exitDx=0;exitDy=0;" edge="1" parent="1" source="CF5qxJ0rqfzSJKUL-HBB-52" target="CF5qxJ0rqfzSJKUL-HBB-80">
          <mxGeometry relative="1" as="geometry">
            <mxPoint x="1010" y="262" as="sourcePoint" />
            <mxPoint x="1019" y="200" as="targetPoint" />
          </mxGeometry>
        </mxCell>
        <mxCell id="CF5qxJ0rqfzSJKUL-HBB-90" value="1" style="resizable=0;html=1;whiteSpace=wrap;align=right;verticalAlign=bottom;" connectable="0" vertex="1" parent="CF5qxJ0rqfzSJKUL-HBB-89">
          <mxGeometry x="1" relative="1" as="geometry">
            <mxPoint x="-3" y="16" as="offset" />
          </mxGeometry>
        </mxCell>
        <mxCell id="CF5qxJ0rqfzSJKUL-HBB-91" value="" style="endArrow=none;html=1;rounded=0;entryX=1;entryY=0.5;entryDx=0;entryDy=0;exitX=0;exitY=0.5;exitDx=0;exitDy=0;" edge="1" parent="1" source="CF5qxJ0rqfzSJKUL-HBB-52" target="CF5qxJ0rqfzSJKUL-HBB-81">
          <mxGeometry relative="1" as="geometry">
            <mxPoint x="1010" y="258" as="sourcePoint" />
            <mxPoint x="950" y="200" as="targetPoint" />
          </mxGeometry>
        </mxCell>
        <mxCell id="CF5qxJ0rqfzSJKUL-HBB-92" value="1" style="resizable=0;html=1;whiteSpace=wrap;align=right;verticalAlign=bottom;" connectable="0" vertex="1" parent="CF5qxJ0rqfzSJKUL-HBB-91">
          <mxGeometry x="1" relative="1" as="geometry">
            <mxPoint x="12" y="13" as="offset" />
          </mxGeometry>
        </mxCell>
        <mxCell id="CF5qxJ0rqfzSJKUL-HBB-93" value="" style="endArrow=none;html=1;rounded=0;entryX=1;entryY=0.5;entryDx=0;entryDy=0;exitX=0;exitY=0.5;exitDx=0;exitDy=0;" edge="1" parent="1" source="CF5qxJ0rqfzSJKUL-HBB-52" target="CF5qxJ0rqfzSJKUL-HBB-82">
          <mxGeometry relative="1" as="geometry">
            <mxPoint x="978" y="318" as="sourcePoint" />
            <mxPoint x="950" y="270" as="targetPoint" />
          </mxGeometry>
        </mxCell>
        <mxCell id="CF5qxJ0rqfzSJKUL-HBB-94" value="1" style="resizable=0;html=1;whiteSpace=wrap;align=right;verticalAlign=bottom;" connectable="0" vertex="1" parent="CF5qxJ0rqfzSJKUL-HBB-93">
          <mxGeometry x="1" relative="1" as="geometry">
            <mxPoint x="10" y="5" as="offset" />
          </mxGeometry>
        </mxCell>
        <mxCell id="CF5qxJ0rqfzSJKUL-HBB-97" value="is a" style="shape=rhombus;perimeter=rhombusPerimeter;whiteSpace=wrap;html=1;align=center;" vertex="1" parent="1">
          <mxGeometry x="425" y="330" width="70" height="30" as="geometry" />
        </mxCell>
        <mxCell id="CF5qxJ0rqfzSJKUL-HBB-99" value="" style="edgeStyle=orthogonalEdgeStyle;rounded=0;orthogonalLoop=1;jettySize=auto;html=1;entryX=0.5;entryY=0;entryDx=0;entryDy=0;endArrow=none;endFill=0;startArrow=ERzeroToOne;startFill=0;" edge="1" parent="1" source="2gW1HQ8y5TxxJWkhXWdI-3" target="CF5qxJ0rqfzSJKUL-HBB-98">
          <mxGeometry relative="1" as="geometry">
            <mxPoint x="460" y="440" as="sourcePoint" />
            <mxPoint x="460" y="520" as="targetPoint" />
          </mxGeometry>
        </mxCell>
        <mxCell id="CF5qxJ0rqfzSJKUL-HBB-98" value="is a" style="shape=rhombus;perimeter=rhombusPerimeter;whiteSpace=wrap;html=1;align=center;" vertex="1" parent="1">
          <mxGeometry x="425" y="470" width="70" height="30" as="geometry" />
        </mxCell>
        <mxCell id="CF5qxJ0rqfzSJKUL-HBB-100" value="is a" style="shape=rhombus;perimeter=rhombusPerimeter;whiteSpace=wrap;html=1;align=center;" vertex="1" parent="1">
          <mxGeometry x="425" y="605" width="70" height="30" as="geometry" />
        </mxCell>
        <mxCell id="CF5qxJ0rqfzSJKUL-HBB-104" value="first_name" style="ellipse;whiteSpace=wrap;html=1;align=center;" vertex="1" parent="1">
          <mxGeometry x="200" y="460" width="70" height="30" as="geometry" />
        </mxCell>
        <mxCell id="CF5qxJ0rqfzSJKUL-HBB-105" value="" style="endArrow=none;html=1;rounded=0;entryX=0.5;entryY=0;entryDx=0;entryDy=0;exitX=0.5;exitY=1;exitDx=0;exitDy=0;" edge="1" parent="1" target="CF5qxJ0rqfzSJKUL-HBB-104" source="2gW1HQ8y5TxxJWkhXWdI-1">
          <mxGeometry relative="1" as="geometry">
            <mxPoint x="205" y="440" as="sourcePoint" />
            <mxPoint x="355" y="420" as="targetPoint" />
          </mxGeometry>
        </mxCell>
        <mxCell id="CF5qxJ0rqfzSJKUL-HBB-106" value="1" style="resizable=0;html=1;whiteSpace=wrap;align=right;verticalAlign=bottom;" connectable="0" vertex="1" parent="CF5qxJ0rqfzSJKUL-HBB-105">
          <mxGeometry x="1" relative="1" as="geometry" />
        </mxCell>
        <mxCell id="CF5qxJ0rqfzSJKUL-HBB-107" value="Gender" style="ellipse;whiteSpace=wrap;html=1;align=center;" vertex="1" parent="1">
          <mxGeometry x="30" y="465" width="50" height="30" as="geometry" />
        </mxCell>
        <mxCell id="CF5qxJ0rqfzSJKUL-HBB-108" value="" style="endArrow=none;html=1;rounded=0;exitX=0.5;exitY=1;exitDx=0;exitDy=0;entryX=0.5;entryY=0;entryDx=0;entryDy=0;" edge="1" parent="1" source="2gW1HQ8y5TxxJWkhXWdI-1" target="CF5qxJ0rqfzSJKUL-HBB-107">
          <mxGeometry relative="1" as="geometry">
            <mxPoint x="120" y="450" as="sourcePoint" />
            <mxPoint x="90" y="490" as="targetPoint" />
          </mxGeometry>
        </mxCell>
        <mxCell id="CF5qxJ0rqfzSJKUL-HBB-109" value="1" style="resizable=0;html=1;whiteSpace=wrap;align=right;verticalAlign=bottom;" connectable="0" vertex="1" parent="CF5qxJ0rqfzSJKUL-HBB-108">
          <mxGeometry x="1" relative="1" as="geometry">
            <mxPoint x="10" as="offset" />
          </mxGeometry>
        </mxCell>
        <mxCell id="CF5qxJ0rqfzSJKUL-HBB-110" value="last_name" style="ellipse;whiteSpace=wrap;html=1;align=center;" vertex="1" parent="1">
          <mxGeometry x="185" y="495" width="70" height="30" as="geometry" />
        </mxCell>
        <mxCell id="CF5qxJ0rqfzSJKUL-HBB-111" value="" style="endArrow=none;html=1;rounded=0;entryX=0.5;entryY=0;entryDx=0;entryDy=0;" edge="1" parent="1" target="CF5qxJ0rqfzSJKUL-HBB-110">
          <mxGeometry relative="1" as="geometry">
            <mxPoint x="130" y="440" as="sourcePoint" />
            <mxPoint x="285" y="470" as="targetPoint" />
          </mxGeometry>
        </mxCell>
        <mxCell id="CF5qxJ0rqfzSJKUL-HBB-112" value="1" style="resizable=0;html=1;whiteSpace=wrap;align=right;verticalAlign=bottom;" connectable="0" vertex="1" parent="CF5qxJ0rqfzSJKUL-HBB-111">
          <mxGeometry x="1" relative="1" as="geometry">
            <mxPoint x="-10" y="5" as="offset" />
          </mxGeometry>
        </mxCell>
        <mxCell id="CF5qxJ0rqfzSJKUL-HBB-113" value="type_of_meal" style="ellipse;whiteSpace=wrap;html=1;align=center;" vertex="1" parent="1">
          <mxGeometry x="280" y="822" width="80" height="30" as="geometry" />
        </mxCell>
        <mxCell id="CF5qxJ0rqfzSJKUL-HBB-114" value="" style="endArrow=none;html=1;rounded=0;dashed=1;dashPattern=1 2;entryX=1;entryY=0.5;entryDx=0;entryDy=0;" edge="1" parent="1">
          <mxGeometry relative="1" as="geometry">
            <mxPoint x="390" y="730" as="sourcePoint" />
            <mxPoint x="360" y="837" as="targetPoint" />
          </mxGeometry>
        </mxCell>
        <mxCell id="CF5qxJ0rqfzSJKUL-HBB-119" value="N" style="text;html=1;align=center;verticalAlign=middle;resizable=0;points=[];autosize=1;strokeColor=none;fillColor=none;" vertex="1" parent="1">
          <mxGeometry x="345" y="808" width="30" height="30" as="geometry" />
        </mxCell>
        <mxCell id="CF5qxJ0rqfzSJKUL-HBB-120" value="N" style="text;html=1;align=center;verticalAlign=middle;resizable=0;points=[];autosize=1;strokeColor=none;fillColor=none;" vertex="1" parent="1">
          <mxGeometry x="320" y="778" width="30" height="30" as="geometry" />
        </mxCell>
      </root>
    </mxGraphModel>
  </diagram>
</mxfile>
